<mxfile host="app.diagrams.net" modified="2021-03-23T20:51:14.419Z" agent="5.0 (X11)" etag="AAPHqMmWEtIhY6Bd8Qg8" version="14.5.1" type="github">
  <diagram id="_E0ixDRon3DRBLl7LCNT" name="David B.">
    <mxGraphModel dx="1130" dy="1079" grid="1" gridSize="10" guides="1" tooltips="1" connect="1" arrows="1" fold="1" page="1" pageScale="1" pageWidth="827" pageHeight="827" background="#ffffff" math="0" shadow="0">
      <root>
        <mxCell id="0" />
        <mxCell id="1" parent="0" />
        <mxCell id="c2aaLGEQ_5WEYPLhfVNE-58" value="" style="group;fontSize=13;" parent="1" vertex="1" connectable="0">
          <mxGeometry x="10" y="10" width="789.88" height="590" as="geometry" />
        </mxCell>
        <mxCell id="c2aaLGEQ_5WEYPLhfVNE-1" value="" style="rounded=0;whiteSpace=wrap;html=1;labelBackgroundColor=none;fontColor=#f0f0f0;fillColor=none;strokeColor=#333333;fontSize=13;" parent="c2aaLGEQ_5WEYPLhfVNE-58" vertex="1">
          <mxGeometry x="299.2184560143627" y="532.2982885085574" width="103.52107719928186" height="31.014669926650367" as="geometry" />
        </mxCell>
        <mxCell id="c2aaLGEQ_5WEYPLhfVNE-2" value="" style="rounded=0;whiteSpace=wrap;html=1;labelBackgroundColor=none;fontColor=#f0f0f0;fillColor=none;strokeColor=#4D4D4D;fontSize=13;" parent="c2aaLGEQ_5WEYPLhfVNE-58" vertex="1">
          <mxGeometry x="303.47274685816876" y="527.9706601466992" width="103.52107719928186" height="31.014669926650367" as="geometry" />
        </mxCell>
        <mxCell id="c2aaLGEQ_5WEYPLhfVNE-3" value="Product" style="rounded=0;whiteSpace=wrap;html=1;verticalAlign=bottom;fillColor=none;fontSize=13;" parent="c2aaLGEQ_5WEYPLhfVNE-58" vertex="1">
          <mxGeometry x="200.66071813285458" y="285.6234718826406" width="326.16229802513465" height="304.3765281173594" as="geometry" />
        </mxCell>
        <mxCell id="c2aaLGEQ_5WEYPLhfVNE-4" value="Releases" style="rounded=0;whiteSpace=wrap;html=1;labelBackgroundColor=none;fontColor=#f0f0f0;fillColor=none;strokeColor=#999999;fontSize=13;" parent="c2aaLGEQ_5WEYPLhfVNE-58" vertex="1">
          <mxGeometry x="307.7270377019749" y="523.643031784841" width="103.52107719928186" height="31.014669926650367" as="geometry" />
        </mxCell>
        <mxCell id="c2aaLGEQ_5WEYPLhfVNE-5" value="Documentation" style="rounded=0;whiteSpace=wrap;html=1;verticalAlign=top;fontSize=13;" parent="c2aaLGEQ_5WEYPLhfVNE-58" vertex="1">
          <mxGeometry y="73.56968215158925" width="262.3479353680431" height="200.51344743276283" as="geometry" />
        </mxCell>
        <mxCell id="c2aaLGEQ_5WEYPLhfVNE-6" value="Marketing" style="rounded=0;whiteSpace=wrap;html=1;verticalAlign=top;fontSize=13;" parent="c2aaLGEQ_5WEYPLhfVNE-58" vertex="1">
          <mxGeometry x="492.0796409335727" y="112.51833740831295" width="241.07648114901258" height="157.95843520782395" as="geometry" />
        </mxCell>
        <mxCell id="c2aaLGEQ_5WEYPLhfVNE-13" value="Design" style="rounded=0;whiteSpace=wrap;html=1;labelBackgroundColor=none;fontColor=#0000FF;fontSize=13;" parent="c2aaLGEQ_5WEYPLhfVNE-58" vertex="1">
          <mxGeometry x="311.98132854578097" y="167.69559902200487" width="127.62872531418311" height="57.70171149144254" as="geometry" />
        </mxCell>
        <mxCell id="c2aaLGEQ_5WEYPLhfVNE-16" value="Logos, &lt;br style=&quot;font-size: 13px;&quot;&gt;illustrations, &lt;br style=&quot;font-size: 13px;&quot;&gt;copy, etc..." style="rounded=0;whiteSpace=wrap;html=1;labelBackgroundColor=none;fontColor=#0000FF;fontSize=13;" parent="c2aaLGEQ_5WEYPLhfVNE-58" vertex="1">
          <mxGeometry x="520.4415798922801" y="160.48288508557454" width="113.44775583482944" height="72.12713936430318" as="geometry" />
        </mxCell>
        <mxCell id="c2aaLGEQ_5WEYPLhfVNE-7" style="rounded=0;orthogonalLoop=1;jettySize=auto;html=1;exitX=1;exitY=0.5;exitDx=0;exitDy=0;entryX=0;entryY=0.5;entryDx=0;entryDy=0;fontSize=13;" parent="c2aaLGEQ_5WEYPLhfVNE-58" source="c2aaLGEQ_5WEYPLhfVNE-13" target="c2aaLGEQ_5WEYPLhfVNE-16" edge="1">
          <mxGeometry relative="1" as="geometry" />
        </mxCell>
        <mxCell id="c2aaLGEQ_5WEYPLhfVNE-17" value="Mastodon" style="rounded=0;whiteSpace=wrap;html=1;labelBackgroundColor=none;fontColor=#4D4D4D;fontSize=13;" parent="c2aaLGEQ_5WEYPLhfVNE-58" vertex="1">
          <mxGeometry x="690.6132136445242" y="144.25427872860635" width="99.26678635547576" height="28.85085574572127" as="geometry" />
        </mxCell>
        <mxCell id="c2aaLGEQ_5WEYPLhfVNE-14" style="edgeStyle=none;rounded=0;orthogonalLoop=1;jettySize=auto;html=1;exitX=1;exitY=0.5;exitDx=0;exitDy=0;entryX=0;entryY=0.5;entryDx=0;entryDy=0;fontColor=#f0f0f0;fontSize=13;" parent="c2aaLGEQ_5WEYPLhfVNE-58" source="c2aaLGEQ_5WEYPLhfVNE-16" target="c2aaLGEQ_5WEYPLhfVNE-17" edge="1">
          <mxGeometry relative="1" as="geometry" />
        </mxCell>
        <mxCell id="c2aaLGEQ_5WEYPLhfVNE-18" style="edgeStyle=none;rounded=0;orthogonalLoop=1;jettySize=auto;html=1;exitX=1;exitY=0.5;exitDx=0;exitDy=0;entryX=0;entryY=0.5;entryDx=0;entryDy=0;fontColor=#f0f0f0;fontSize=13;" parent="c2aaLGEQ_5WEYPLhfVNE-58" source="c2aaLGEQ_5WEYPLhfVNE-16" target="c2aaLGEQ_5WEYPLhfVNE-19" edge="1">
          <mxGeometry relative="1" as="geometry" />
        </mxCell>
        <mxCell id="c2aaLGEQ_5WEYPLhfVNE-19" value="Twitter" style="rounded=0;whiteSpace=wrap;html=1;labelBackgroundColor=none;fontColor=#4D4D4D;fontSize=13;" parent="c2aaLGEQ_5WEYPLhfVNE-58" vertex="1">
          <mxGeometry x="690.6132136445242" y="182.1210268948655" width="99.26678635547576" height="28.85085574572127" as="geometry" />
        </mxCell>
        <mxCell id="c2aaLGEQ_5WEYPLhfVNE-20" style="edgeStyle=none;rounded=0;orthogonalLoop=1;jettySize=auto;html=1;entryX=0;entryY=0.5;entryDx=0;entryDy=0;fontColor=#f0f0f0;exitX=1;exitY=0.5;exitDx=0;exitDy=0;fontSize=13;" parent="c2aaLGEQ_5WEYPLhfVNE-58" source="c2aaLGEQ_5WEYPLhfVNE-16" target="c2aaLGEQ_5WEYPLhfVNE-21" edge="1">
          <mxGeometry relative="1" as="geometry" />
        </mxCell>
        <mxCell id="c2aaLGEQ_5WEYPLhfVNE-21" value="Blog" style="rounded=0;whiteSpace=wrap;html=1;labelBackgroundColor=none;fontColor=#4D4D4D;fontSize=13;" parent="c2aaLGEQ_5WEYPLhfVNE-58" vertex="1">
          <mxGeometry x="690.6132136445242" y="219.98777506112467" width="99.26678635547576" height="28.85085574572127" as="geometry" />
        </mxCell>
        <mxCell id="c2aaLGEQ_5WEYPLhfVNE-24" value="Microcopy" style="rounded=0;whiteSpace=wrap;html=1;labelBackgroundColor=none;fontColor=#0000FF;fontSize=13;" parent="c2aaLGEQ_5WEYPLhfVNE-58" vertex="1">
          <mxGeometry x="243.91267504488331" y="350.5378973105135" width="89.34010771992818" height="28.85085574572127" as="geometry" />
        </mxCell>
        <mxCell id="c2aaLGEQ_5WEYPLhfVNE-8" style="rounded=0;orthogonalLoop=1;jettySize=auto;html=1;exitX=0.25;exitY=1;exitDx=0;exitDy=0;fontColor=#f0f0f0;fontSize=13;" parent="c2aaLGEQ_5WEYPLhfVNE-58" source="c2aaLGEQ_5WEYPLhfVNE-13" target="c2aaLGEQ_5WEYPLhfVNE-24" edge="1">
          <mxGeometry relative="1" as="geometry" />
        </mxCell>
        <mxCell id="c2aaLGEQ_5WEYPLhfVNE-27" value="New features,&lt;br style=&quot;font-size: 13px;&quot;&gt;Improvements,&lt;br style=&quot;font-size: 13px;&quot;&gt;Maintenance" style="rounded=0;whiteSpace=wrap;html=1;labelBackgroundColor=none;fontColor=#0000FF;fontSize=13;" parent="c2aaLGEQ_5WEYPLhfVNE-58" vertex="1">
          <mxGeometry x="374.37759425493715" y="331.7848410757946" width="127.62872531418311" height="70.68459657701712" as="geometry" />
        </mxCell>
        <mxCell id="c2aaLGEQ_5WEYPLhfVNE-9" style="edgeStyle=none;rounded=0;orthogonalLoop=1;jettySize=auto;html=1;exitX=0.75;exitY=1;exitDx=0;exitDy=0;fontColor=#f0f0f0;fontSize=13;" parent="c2aaLGEQ_5WEYPLhfVNE-58" source="c2aaLGEQ_5WEYPLhfVNE-13" target="c2aaLGEQ_5WEYPLhfVNE-27" edge="1">
          <mxGeometry relative="1" as="geometry" />
        </mxCell>
        <mxCell id="c2aaLGEQ_5WEYPLhfVNE-23" style="rounded=0;orthogonalLoop=1;jettySize=auto;html=1;startArrow=classic;startFill=1;fontSize=13;" parent="c2aaLGEQ_5WEYPLhfVNE-58" source="c2aaLGEQ_5WEYPLhfVNE-24" target="c2aaLGEQ_5WEYPLhfVNE-27" edge="1">
          <mxGeometry relative="1" as="geometry" />
        </mxCell>
        <mxCell id="c2aaLGEQ_5WEYPLhfVNE-28" style="rounded=0;orthogonalLoop=1;jettySize=auto;html=1;entryX=1.008;entryY=0.626;entryDx=0;entryDy=0;entryPerimeter=0;startArrow=classic;startFill=1;fontSize=13;" parent="c2aaLGEQ_5WEYPLhfVNE-58" edge="1">
          <mxGeometry relative="1" as="geometry">
            <mxPoint x="223.6168715260323" y="301.5491442542787" as="targetPoint" />
            <mxPoint x="507.6787073608617" y="301.4914425427873" as="sourcePoint" />
          </mxGeometry>
        </mxCell>
        <mxCell id="c2aaLGEQ_5WEYPLhfVNE-29" value="Homepage" style="rounded=0;whiteSpace=wrap;html=1;labelBackgroundColor=none;fillColor=none;fontColor=#0000FF;fontSize=13;" parent="c2aaLGEQ_5WEYPLhfVNE-58" vertex="1">
          <mxGeometry x="511.93299820466785" y="255.3300733496332" width="127.62872531418311" height="59.1442542787286" as="geometry" />
        </mxCell>
        <mxCell id="c2aaLGEQ_5WEYPLhfVNE-10" style="edgeStyle=none;rounded=0;orthogonalLoop=1;jettySize=auto;html=1;exitX=1;exitY=1;exitDx=0;exitDy=0;entryX=-0.005;entryY=0.394;entryDx=0;entryDy=0;entryPerimeter=0;fontColor=#f0f0f0;fontSize=13;" parent="c2aaLGEQ_5WEYPLhfVNE-58" source="c2aaLGEQ_5WEYPLhfVNE-13" target="c2aaLGEQ_5WEYPLhfVNE-29" edge="1">
          <mxGeometry relative="1" as="geometry" />
        </mxCell>
        <mxCell id="c2aaLGEQ_5WEYPLhfVNE-15" style="edgeStyle=none;rounded=0;orthogonalLoop=1;jettySize=auto;html=1;exitX=0.5;exitY=1;exitDx=0;exitDy=0;entryX=0.5;entryY=0;entryDx=0;entryDy=0;fontColor=#f0f0f0;fontSize=13;" parent="c2aaLGEQ_5WEYPLhfVNE-58" source="c2aaLGEQ_5WEYPLhfVNE-16" target="c2aaLGEQ_5WEYPLhfVNE-29" edge="1">
          <mxGeometry relative="1" as="geometry" />
        </mxCell>
        <mxCell id="c2aaLGEQ_5WEYPLhfVNE-31" value="mockups" style="rounded=0;whiteSpace=wrap;html=1;labelBackgroundColor=none;fontColor=#4D4D4D;fontSize=13;" parent="c2aaLGEQ_5WEYPLhfVNE-58" vertex="1">
          <mxGeometry x="347.4337522441652" y="438.8936430317848" width="92.17630161579892" height="31.014669926650367" as="geometry" />
        </mxCell>
        <mxCell id="c2aaLGEQ_5WEYPLhfVNE-25" style="edgeStyle=none;rounded=0;orthogonalLoop=1;jettySize=auto;html=1;entryX=0.5;entryY=0;entryDx=0;entryDy=0;fontColor=#f0f0f0;fontSize=13;" parent="c2aaLGEQ_5WEYPLhfVNE-58" source="c2aaLGEQ_5WEYPLhfVNE-27" target="c2aaLGEQ_5WEYPLhfVNE-31" edge="1">
          <mxGeometry relative="1" as="geometry" />
        </mxCell>
        <mxCell id="c2aaLGEQ_5WEYPLhfVNE-33" value="code" style="rounded=0;whiteSpace=wrap;html=1;labelBackgroundColor=none;fontColor=#4D4D4D;fontSize=13;" parent="c2aaLGEQ_5WEYPLhfVNE-58" vertex="1">
          <mxGeometry x="448.1186355475763" y="484.69437652811735" width="59.560071813285454" height="29.932762836185816" as="geometry" />
        </mxCell>
        <mxCell id="c2aaLGEQ_5WEYPLhfVNE-26" style="edgeStyle=none;rounded=0;orthogonalLoop=1;jettySize=auto;html=1;entryX=0.5;entryY=0;entryDx=0;entryDy=0;fontColor=#f0f0f0;exitX=0.615;exitY=1.009;exitDx=0;exitDy=0;exitPerimeter=0;fontSize=13;" parent="c2aaLGEQ_5WEYPLhfVNE-58" source="c2aaLGEQ_5WEYPLhfVNE-27" target="c2aaLGEQ_5WEYPLhfVNE-33" edge="1">
          <mxGeometry relative="1" as="geometry" />
        </mxCell>
        <mxCell id="c2aaLGEQ_5WEYPLhfVNE-30" style="edgeStyle=elbowEdgeStyle;rounded=0;orthogonalLoop=1;jettySize=auto;html=1;exitX=0.5;exitY=1;exitDx=0;exitDy=0;entryX=0;entryY=0.5;entryDx=0;entryDy=0;fontSize=13;" parent="c2aaLGEQ_5WEYPLhfVNE-58" source="c2aaLGEQ_5WEYPLhfVNE-31" target="c2aaLGEQ_5WEYPLhfVNE-33" edge="1">
          <mxGeometry relative="1" as="geometry">
            <Array as="points">
              <mxPoint x="395.6490484739677" y="452.9584352078239" />
            </Array>
          </mxGeometry>
        </mxCell>
        <mxCell id="c2aaLGEQ_5WEYPLhfVNE-36" value="Weblate" style="rounded=0;whiteSpace=wrap;html=1;labelBackgroundColor=none;fillColor=none;fontColor=#4D4D4D;fontSize=13;" parent="c2aaLGEQ_5WEYPLhfVNE-58" vertex="1">
          <mxGeometry x="100.68488330341113" y="262.5427872860635" width="121.95633752244166" height="57.70171149144254" as="geometry" />
        </mxCell>
        <mxCell id="c2aaLGEQ_5WEYPLhfVNE-22" style="edgeStyle=none;rounded=0;orthogonalLoop=1;jettySize=auto;html=1;exitX=0;exitY=0;exitDx=0;exitDy=0;entryX=1;entryY=1;entryDx=0;entryDy=0;fontSize=13;" parent="c2aaLGEQ_5WEYPLhfVNE-58" source="c2aaLGEQ_5WEYPLhfVNE-24" target="c2aaLGEQ_5WEYPLhfVNE-36" edge="1">
          <mxGeometry relative="1" as="geometry" />
        </mxCell>
        <mxCell id="c2aaLGEQ_5WEYPLhfVNE-37" style="rounded=0;orthogonalLoop=1;jettySize=auto;html=1;exitX=0.25;exitY=1;exitDx=0;exitDy=0;entryX=0.25;entryY=0;entryDx=0;entryDy=0;fontColor=#FCFCFC;fontSize=13;" parent="c2aaLGEQ_5WEYPLhfVNE-58" source="c2aaLGEQ_5WEYPLhfVNE-38" target="c2aaLGEQ_5WEYPLhfVNE-36" edge="1">
          <mxGeometry relative="1" as="geometry" />
        </mxCell>
        <mxCell id="c2aaLGEQ_5WEYPLhfVNE-38" value="User Guide" style="rounded=0;whiteSpace=wrap;html=1;labelBackgroundColor=none;fontColor=#0000FF;fontSize=13;" parent="c2aaLGEQ_5WEYPLhfVNE-58" vertex="1">
          <mxGeometry x="127.62872531418311" y="203.75916870415648" width="113.44775583482944" height="28.85085574572127" as="geometry" />
        </mxCell>
        <mxCell id="c2aaLGEQ_5WEYPLhfVNE-11" style="rounded=0;orthogonalLoop=1;jettySize=auto;html=1;entryX=1;entryY=0.5;entryDx=0;entryDy=0;fontColor=#f0f0f0;exitX=-0.005;exitY=0.381;exitDx=0;exitDy=0;exitPerimeter=0;fontSize=13;" parent="c2aaLGEQ_5WEYPLhfVNE-58" source="c2aaLGEQ_5WEYPLhfVNE-13" target="c2aaLGEQ_5WEYPLhfVNE-38" edge="1">
          <mxGeometry relative="1" as="geometry" />
        </mxCell>
        <mxCell id="c2aaLGEQ_5WEYPLhfVNE-40" value="Dev Guide" style="rounded=0;whiteSpace=wrap;html=1;labelBackgroundColor=none;opacity=50;fontColor=#696969;fontSize=13;" parent="c2aaLGEQ_5WEYPLhfVNE-58" vertex="1">
          <mxGeometry x="127.62872531418311" y="167.69559902200487" width="113.44775583482944" height="28.85085574572127" as="geometry" />
        </mxCell>
        <mxCell id="c2aaLGEQ_5WEYPLhfVNE-42" value="Admin Guide" style="rounded=0;whiteSpace=wrap;html=1;labelBackgroundColor=none;opacity=50;fontColor=#696969;fontSize=13;" parent="c2aaLGEQ_5WEYPLhfVNE-58" vertex="1">
          <mxGeometry x="127.62872531418311" y="130.91075794621025" width="113.44775583482944" height="28.85085574572127" as="geometry" />
        </mxCell>
        <mxCell id="c2aaLGEQ_5WEYPLhfVNE-43" style="edgeStyle=orthogonalEdgeStyle;rounded=0;orthogonalLoop=1;jettySize=auto;html=1;entryX=0.164;entryY=1.012;entryDx=0;entryDy=0;entryPerimeter=0;fontColor=#4D4D4D;fontSize=13;" parent="c2aaLGEQ_5WEYPLhfVNE-58" source="c2aaLGEQ_5WEYPLhfVNE-56" target="c2aaLGEQ_5WEYPLhfVNE-5" edge="1">
          <mxGeometry relative="1" as="geometry">
            <mxPoint x="64.016947935368" y="472.79339853300735" as="targetPoint" />
          </mxGeometry>
        </mxCell>
        <mxCell id="c2aaLGEQ_5WEYPLhfVNE-44" value="&amp;nbsp;screenshots&amp;nbsp;" style="edgeLabel;html=1;align=center;verticalAlign=middle;resizable=0;points=[];fontColor=#4D4D4D;fontSize=13;" parent="c2aaLGEQ_5WEYPLhfVNE-43" vertex="1" connectable="0">
          <mxGeometry x="-0.0515" y="-1" relative="1" as="geometry">
            <mxPoint x="40.86" y="1.01" as="offset" />
          </mxGeometry>
        </mxCell>
        <mxCell id="c2aaLGEQ_5WEYPLhfVNE-45" value="Sphinx&lt;br style=&quot;font-size: 13px;&quot;&gt;website" style="rounded=0;whiteSpace=wrap;html=1;labelBackgroundColor=none;fontColor=#4D4D4D;fontSize=13;" parent="c2aaLGEQ_5WEYPLhfVNE-58" vertex="1">
          <mxGeometry x="15.59906642728905" y="150.0244498777506" width="85.0858168761221" height="56.9804400977995" as="geometry" />
        </mxCell>
        <mxCell id="c2aaLGEQ_5WEYPLhfVNE-35" style="edgeStyle=none;rounded=0;orthogonalLoop=1;jettySize=auto;html=1;exitX=0;exitY=0;exitDx=0;exitDy=0;entryX=0.5;entryY=1;entryDx=0;entryDy=0;fontColor=#FCFCFC;fontSize=13;" parent="c2aaLGEQ_5WEYPLhfVNE-58" source="c2aaLGEQ_5WEYPLhfVNE-36" target="c2aaLGEQ_5WEYPLhfVNE-45" edge="1">
          <mxGeometry relative="1" as="geometry" />
        </mxCell>
        <mxCell id="c2aaLGEQ_5WEYPLhfVNE-39" style="edgeStyle=none;rounded=0;orthogonalLoop=1;jettySize=auto;html=1;fontColor=#FCFCFC;opacity=25;fontSize=13;" parent="c2aaLGEQ_5WEYPLhfVNE-58" source="c2aaLGEQ_5WEYPLhfVNE-40" target="c2aaLGEQ_5WEYPLhfVNE-45" edge="1">
          <mxGeometry relative="1" as="geometry" />
        </mxCell>
        <mxCell id="c2aaLGEQ_5WEYPLhfVNE-41" style="edgeStyle=none;rounded=0;orthogonalLoop=1;jettySize=auto;html=1;fontColor=#FCFCFC;exitX=0;exitY=0.75;exitDx=0;exitDy=0;opacity=25;fontSize=13;" parent="c2aaLGEQ_5WEYPLhfVNE-58" source="c2aaLGEQ_5WEYPLhfVNE-42" target="c2aaLGEQ_5WEYPLhfVNE-45" edge="1">
          <mxGeometry relative="1" as="geometry" />
        </mxCell>
        <mxCell id="c2aaLGEQ_5WEYPLhfVNE-46" value="Support" style="rounded=0;whiteSpace=wrap;html=1;verticalAlign=top;fillColor=none;fontSize=13;" parent="c2aaLGEQ_5WEYPLhfVNE-58" vertex="1">
          <mxGeometry x="202.78786355475762" width="228.31360861759424" height="112.51833740831295" as="geometry" />
        </mxCell>
        <mxCell id="c2aaLGEQ_5WEYPLhfVNE-48" value="tickets" style="rounded=0;whiteSpace=wrap;html=1;labelBackgroundColor=none;direction=west;fontColor=#0000FF;fontSize=13;" parent="c2aaLGEQ_5WEYPLhfVNE-58" vertex="1">
          <mxGeometry x="278.6560502692998" y="50.48899755501222" width="70.9048473967684" height="28.85085574572127" as="geometry" />
        </mxCell>
        <mxCell id="c2aaLGEQ_5WEYPLhfVNE-12" style="edgeStyle=none;rounded=0;orthogonalLoop=1;jettySize=auto;html=1;entryX=0.5;entryY=0;entryDx=0;entryDy=0;exitX=0.25;exitY=0;exitDx=0;exitDy=0;fontSize=13;" parent="c2aaLGEQ_5WEYPLhfVNE-58" source="c2aaLGEQ_5WEYPLhfVNE-13" target="c2aaLGEQ_5WEYPLhfVNE-48" edge="1">
          <mxGeometry relative="1" as="geometry" />
        </mxCell>
        <mxCell id="c2aaLGEQ_5WEYPLhfVNE-49" value="" style="rounded=0;whiteSpace=wrap;html=1;fillColor=none;strokeColor=none;fontSize=13;" parent="c2aaLGEQ_5WEYPLhfVNE-58" vertex="1">
          <mxGeometry x="209.87834829443446" y="105.30562347188264" width="12.762872531418312" height="11.54034229828851" as="geometry" />
        </mxCell>
        <mxCell id="c2aaLGEQ_5WEYPLhfVNE-47" style="rounded=0;orthogonalLoop=1;jettySize=auto;html=1;exitX=1;exitY=0;exitDx=0;exitDy=0;entryX=1;entryY=0;entryDx=0;entryDy=0;dashed=1;fontSize=13;" parent="c2aaLGEQ_5WEYPLhfVNE-58" source="c2aaLGEQ_5WEYPLhfVNE-48" target="c2aaLGEQ_5WEYPLhfVNE-49" edge="1">
          <mxGeometry relative="1" as="geometry">
            <mxPoint x="150.318276481149" y="27.408312958435204" as="targetPoint" />
            <Array as="points" />
          </mxGeometry>
        </mxCell>
        <mxCell id="c2aaLGEQ_5WEYPLhfVNE-50" style="rounded=0;orthogonalLoop=1;jettySize=auto;html=1;entryX=0;entryY=0.5;entryDx=0;entryDy=0;fontColor=#33FFFF;exitX=1;exitY=0.5;exitDx=0;exitDy=0;endArrow=none;endFill=0;fontSize=13;" parent="c2aaLGEQ_5WEYPLhfVNE-58" source="c2aaLGEQ_5WEYPLhfVNE-51" target="c2aaLGEQ_5WEYPLhfVNE-48" edge="1">
          <mxGeometry relative="1" as="geometry" />
        </mxCell>
        <mxCell id="c2aaLGEQ_5WEYPLhfVNE-51" value="Internal" style="rounded=0;whiteSpace=wrap;html=1;labelBackgroundColor=none;direction=west;fontSize=13;fontColor=#4D4D4D;" parent="c2aaLGEQ_5WEYPLhfVNE-58" vertex="1">
          <mxGeometry x="370.123303411131" y="27.408312958435204" width="55.30578096947936" height="21.638141809290953" as="geometry" />
        </mxCell>
        <mxCell id="c2aaLGEQ_5WEYPLhfVNE-52" style="edgeStyle=none;rounded=0;orthogonalLoop=1;jettySize=auto;html=1;endArrow=none;endFill=0;fontColor=#33FFFF;fontSize=13;" parent="c2aaLGEQ_5WEYPLhfVNE-58" source="c2aaLGEQ_5WEYPLhfVNE-53" target="c2aaLGEQ_5WEYPLhfVNE-48" edge="1">
          <mxGeometry relative="1" as="geometry" />
        </mxCell>
        <mxCell id="c2aaLGEQ_5WEYPLhfVNE-53" value="Email" style="rounded=0;whiteSpace=wrap;html=1;labelBackgroundColor=none;direction=west;fontSize=13;fontColor=#4D4D4D;" parent="c2aaLGEQ_5WEYPLhfVNE-58" vertex="1">
          <mxGeometry x="370.123303411131" y="52.65281173594132" width="41.12481149012567" height="21.638141809290953" as="geometry" />
        </mxCell>
        <mxCell id="c2aaLGEQ_5WEYPLhfVNE-54" style="edgeStyle=none;rounded=0;orthogonalLoop=1;jettySize=auto;html=1;entryX=0;entryY=0.5;entryDx=0;entryDy=0;endArrow=none;endFill=0;fontColor=#33FFFF;exitX=1;exitY=0.5;exitDx=0;exitDy=0;fontSize=13;" parent="c2aaLGEQ_5WEYPLhfVNE-58" source="c2aaLGEQ_5WEYPLhfVNE-55" target="c2aaLGEQ_5WEYPLhfVNE-48" edge="1">
          <mxGeometry relative="1" as="geometry" />
        </mxCell>
        <mxCell id="c2aaLGEQ_5WEYPLhfVNE-55" value="Matrix" style="rounded=0;whiteSpace=wrap;html=1;labelBackgroundColor=none;direction=west;fontSize=13;fontColor=#4D4D4D;" parent="c2aaLGEQ_5WEYPLhfVNE-58" vertex="1">
          <mxGeometry x="370.123303411131" y="77.89731051344742" width="45.379102333931776" height="18.753056234718827" as="geometry" />
        </mxCell>
        <mxCell id="c2aaLGEQ_5WEYPLhfVNE-56" value="Releases" style="rounded=0;whiteSpace=wrap;html=1;labelBackgroundColor=none;fontColor=#4D4D4D;fontSize=13;" parent="c2aaLGEQ_5WEYPLhfVNE-58" vertex="1">
          <mxGeometry x="311.98132854578097" y="519.3154034229829" width="103.52107719928186" height="31.014669926650367" as="geometry" />
        </mxCell>
        <mxCell id="c2aaLGEQ_5WEYPLhfVNE-32" style="rounded=0;orthogonalLoop=1;jettySize=auto;html=1;entryX=1;entryY=0.5;entryDx=0;entryDy=0;fontColor=#696969;exitX=0.365;exitY=0.997;exitDx=0;exitDy=0;exitPerimeter=0;edgeStyle=elbowEdgeStyle;fontSize=13;" parent="c2aaLGEQ_5WEYPLhfVNE-58" source="c2aaLGEQ_5WEYPLhfVNE-33" target="c2aaLGEQ_5WEYPLhfVNE-56" edge="1">
          <mxGeometry relative="1" as="geometry">
            <Array as="points">
              <mxPoint x="476.48057450628363" y="497.6772616136919" />
            </Array>
          </mxGeometry>
        </mxCell>
        <mxCell id="c2aaLGEQ_5WEYPLhfVNE-34" style="edgeStyle=none;rounded=0;orthogonalLoop=1;jettySize=auto;html=1;entryX=0;entryY=0;entryDx=0;entryDy=0;fontColor=#696969;fontSize=13;" parent="c2aaLGEQ_5WEYPLhfVNE-58" source="c2aaLGEQ_5WEYPLhfVNE-36" target="c2aaLGEQ_5WEYPLhfVNE-56" edge="1">
          <mxGeometry relative="1" as="geometry" />
        </mxCell>
      </root>
    </mxGraphModel>
  </diagram>
</mxfile>
